# xmcd
#
# Track frame offsets:
# 150
# 14506
# 33901
# 50143
# 67888
# 85353
# 105892
# 125285
# 144754
# 164452
# 183702
#
# Disc length: 2716 seconds
#
# Revision: 0
# Processed by: cddbd v1.4PL0 Copyright (c) Steve Scherf et al.
# Submitted via: Axialis_AX_CDPlayer 2.6
#
DISCID=8c0a9a0b
DTITLE=Eddy Mitchell - Frenchy
DYEAR=1900
DGENRE=
TTITLE0=J'aime les interdits
TTITLE1=Sur la route 66
TTITLE2=Faut faire avec moi
TTITLE3=Le monde est trop petit
TTITLE4=Y'a danger
TTITLE5=Je chante pour ceux qui ont le blues
TTITLE6=Reality show
TTITLE7=C'est pas ta journée
TTITLE8=Coeur glacé
TTITLE9=Faudrait pas rester là
TTITLE10=Au bar du Lutetia
EXTD=
EXTT0=
EXTT1=
EXTT2=
EXTT3=
EXTT4=
EXTT5=
EXTT6=
EXTT7=
EXTT8=
EXTT9=
EXTT10=
PLAYORDER=
